# xmcd
# Copyright (C) 1995-1998 Ti Kan
#
# Track frame offsets:
#       150
#       20163
#       35695
#       54129
#       69287
#       86018
#       102884
#       120885
#       139663
#       154695
#       171114
#       194015
#
# Disc length: 2737 seconds
#
# Revision: 0
# Processed by: cddbd v1.5.2PL0 Copyright (c) Steve Scherf et al.
# Submitted via: CD-Import v1.0
#
DISCID=980aaf0c
DTITLE=Supergrass - Supergrass
DYEAR=1999
DGENRE=
TTITLE0=Moving
TTITLE1=Your Love
TTITLE2=What Went Wrong
TTITLE3=Beautiful People
TTITLE4=Shotover Hill
TTITLE5=Eon
TTITLE6=Mary
TTITLE7=Jesus Came From Outa Space
TTITLE8=Pumping On Your Stereo
TTITLE9=Born Again
TTITLE10=Far Away
TTITLE11=Mama and Papa
EXTD=
EXTT0=
EXTT1=
EXTT2=
EXTT3=
EXTT4=
EXTT5=
EXTT6=
EXTT7=
EXTT8=
EXTT9=
EXTT10=
EXTT11=
PLAYORDER=
